PathFileType	4	(X/Y/Z)	/Users/itak/Documents/Research/Walk-IL/dataset/trc/00015_00004.trc
DataRate	CameraRate	NumFrames	NumMarkers	Units	OrigDataRate	OrigDataStartFrame	OrigNumFrames
100.000000	100.000000	4	53	mm	100.000000	367	588
Frame#	Time	RPSI			LPSI			L3			STRN			T10			C7			CLAV			RBAK			LBAK			LSHO			LUPA			LAEL			LAOL			LWTS			LWPS			LFRA			LIFD			LHPS			LHTS			RSHO			RUPA			RAEL			RAOL			RWTS			RWPS			RFRA			RIFD			RHTS			RHPS			RBHD			LFHD			RFHD			LBHD			LHIP			RHIP			RASI			LASI			LKNE			LTHI			LANK			LTIP			LTOE			LMT1			LMT5			LHEE			RKNE			RTHI			RANK			RTIP			RTOE			RMT1			RMT5			RHEE			
		X1	Y1	Z1	X2	Y2	Z2	X3	Y3	Z3	X4	Y4	Z4	X5	Y5	Z5	X6	Y6	Z6	X7	Y7	Z7	X8	Y8	Z8	X9	Y9	Z9	X10	Y10	Z10	X11	Y11	Z11	X12	Y12	Z12	X13	Y13	Z13	X14	Y14	Z14	X15	Y15	Z15	X16	Y16	Z16	X17	Y17	Z17	X18	Y18	Z18	X19	Y19	Z19	X20	Y20	Z20	X21	Y21	Z21	X22	Y22	Z22	X23	Y23	Z23	X24	Y24	Z24	X25	Y25	Z25	X26	Y26	Z26	X27	Y27	Z27	X28	Y28	Z28	X29	Y29	Z29	X30	Y30	Z30	X31	Y31	Z31	X32	Y32	Z32	X33	Y33	Z33	X34	Y34	Z34	X35	Y35	Z35	X36	Y36	Z36	X37	Y37	Z37	X38	Y38	Z38	X39	Y39	Z39	X40	Y40	Z40	X41	Y41	Z41	X42	Y42	Z42	X43	Y43	Z43	X44	Y44	Z44	X45	Y45	Z45	X46	Y46	Z46	X47	Y47	Z47	X48	Y48	Z48	X49	Y49	Z49	X50	Y50	Z50	X51	Y51	Z51	X52	Y52	Z52	X53	Y53	Z53	

368	3.67	-294.8391723632812	1035.4423828125	-152.2017974853516	-341.0557250976562	1030.51513671875	-308.09765625	-319.7842407226562	1102.09326171875	-242.2129821777344	-86.44080352783203	1284.171630859375	-291.1226806640625	-332.486572265625	1245.129028320312	-250.7966003417969	-278.9808349609375	1510.276489257812	-273.3385620117188	-123.9743347167969	1412.199462890625	-288.6863708496094	-322.2835388183594	1375.12939453125	-184.8867797851562	-310.2529602050781	1469.194580078125	-369.3494262695312	-215.9590454101562	1472.168823242188	-454.8475646972656	-251.9623565673828	1347.091430664062	-528.76904296875	-238.4062957763672	1127.696166992188	-551.8535766601562	-295.6058349609375	1111.2626953125	-463.8194274902344	-87.94189453125	919.9617309570312	-465.3145141601562	-150.23779296875	878.4692993164062	-512.9058837890625	-195.4614410400391	1019.492614746094	-546.9520263671875	-3.409039735794067	756.314697265625	-429.3409729003906	-90.02142333984375	805.9569702148438	-501.0870056152344	-35.64498138427734	838.7799682617188	-468.6213989257812	-176.5825805664062	1493.392456054688	-111.3610382080078	-181.541748046875	1423.737548828125	-36.65058898925781	-218.1170806884766	1161.39111328125	10.93424797058105	-232.8220977783203	1125.115112304688	-81.45900726318359	-92.94550323486328	899.8185424804688	-12.87590312957764	-150.1580200195312	891.0858154296875	59.00968170166016	-203.0888214111328	1087.292358398438	31.35916328430176	-74.24405670166016	711.7872314453125	-9.649420738220215	-59.00910568237305	790.7685546875	8.196596145629883	-109.9511871337891	791.4363403320312	62.73262786865234	-221.0250396728516	1682.053588867188	-201.5575408935547	-47.39963912963867	1704.115356445312	-320.2005004882812	-48.58752822875977	1700.852294921875	-221.4473876953125	-227.9309692382812	1690.6845703125	-345.6826782226562	-282.7605895996094	927.6798095703125	-433.4241333007812	-151.2597961425781	938.8673706054688	-84.77920532226562	-79.68563842773438	963.5892333984375	-185.9050598144531	-151.0378112792969	969.185791015625	-409.0872802734375	-250.8048553466797	478.6257934570312	-407.8797302246094	-272.7104187011719	622.070068359375	-434.7146911621094	-529.4263305664062	61.3492317199707	-365.1965026855469	-411.0647888183594	277.3127746582031	-399.7794799804688	-312.5307006835938	37.68231964111328	-299.4237670898438	-369.8599853515625	50.90598297119141	-283.2251586914062	-407.537109375	36.40802764892578	-383.1693420410156	-596.1018676757812	91.05623626708984	-313.6011962890625	-12.22285461425781	536.0374755859375	-131.7320251464844	-90.34499359130859	787.9892578125	-87.3226318359375	27.4885139465332	38.69581604003906	-145.2496337890625	5.073722839355469	409.3584899902344	-128.5507354736328	246.4443359375	99.58775329589844	-191.0412902832031	183.8833465576172	86.23348236083984	-220.7591552734375	174.3095245361328	66.76167297363281	-127.0985870361328	-28.93031692504883	30.24071502685547	-186.94580078125	
369	3.68	-303.7562866210938	1035.492553710938	-153.3936767578125	-350.1002807617188	1030.888427734375	-309.2352905273438	-328.5087280273438	1102.359130859375	-243.4422454833984	-94.80070495605469	1284.1689453125	-292.6584167480469	-340.9198913574219	1245.456665039062	-252.157470703125	-287.0215148925781	1510.513061523438	-274.6369323730469	-132.1643218994141	1412.291015625	-290.1739196777344	-330.5036315917969	1375.441040039062	-186.2305755615234	-318.3594055175781	1469.531005859375	-370.599365234375	-224.1979827880859	1472.461303710938	-456.2352294921875	-260.6685485839844	1347.561767578125	-530.2308349609375	-248.1380615234375	1128.06982421875	-553.456298828125	-305.2445373535156	1111.970825195312	-465.3342590332031	-99.93134307861328	918.1813354492188	-467.7810363769531	-162.8657531738281	877.6300048828125	-515.3193359375	-206.3886566162109	1019.326171875	-548.8919677734375	-17.51454925537109	753.317138671875	-432.4221801757812	-103.6582183837891	804.302001953125	-503.8270263671875	-48.73408889770508	836.3146362304688	-471.3965454101562	-184.6563262939453	1493.406494140625	-112.7695770263672	-189.4718627929688	1423.627197265625	-38.12196731567383	-224.9657592773438	1161.09521484375	9.38771915435791	-239.6802215576172	1124.792358398438	-82.98445892333984	-97.83506774902344	900.5191040039062	-15.18998622894287	-154.8172149658203	891.1355590820312	56.81409454345703	-209.3974914550781	1086.991455078125	29.70100212097168	-77.35649108886719	712.6882934570312	-12.35420036315918	-62.84868240356445	791.761474609375	5.598412036895752	-113.7111587524414	791.8265991210938	60.22514343261719	-228.4545288085938	1682.24853515625	-202.8750305175781	-54.73309326171875	1703.766967773438	-321.5447692871094	-56.00101089477539	1700.432250976562	-222.7633514404297	-235.3729858398438	1690.901245117188	-347.0143432617188	-291.9477844238281	928.0859985351562	-434.5366821289062	-160.2298583984375	938.7670288085938	-85.97238922119141	-88.80043029785156	963.5071411132812	-187.1816101074219	-160.1381988525391	969.3902587890625	-410.4046020507812	-257.8497009277344	479.0027770996094	-408.5309753417969	-280.6069641113281	622.24609375	-435.5142211914062	-530.5450439453125	58.52511215209961	-364.3642883300781	-415.4029541015625	275.811767578125	-399.5219116210938	-312.7784118652344	37.68467712402344	-299.4991760253906	-370.4726257324219	50.32559585571289	-283.205078125	-408.2110595703125	36.09893417358398	-383.0888061523438	-597.5465698242188	86.97043609619141	-312.3968811035156	-21.45030975341797	536.1533813476562	-132.3249816894531	-99.50066375732422	787.8233642578125	-88.29361724853516	25.28039932250977	39.24578094482422	-145.5487213134766	-3.122049808502197	409.8988037109375	-128.7733764648438	243.0282592773438	105.9425964355469	-190.3371124267578	180.7923431396484	91.13494110107422	-220.3184204101562	171.3269195556641	71.18462371826172	-126.6486892700195	-30.6378002166748	29.42123985290527	-187.2013549804688	
370	3.69	-312.4779052734375	1035.660888671875	-154.53857421875	-358.9335632324219	1031.399047851562	-310.3266296386719	-337.0408935546875	1102.735229492188	-244.5876312255859	-103.0077667236328	1284.36669921875	-294.1350402832031	-349.1990966796875	1245.893432617188	-253.3798675537109	-295.0325012207031	1510.881469726562	-275.8438110351562	-140.2668304443359	1412.566650390625	-291.5927429199219	-338.616455078125	1375.876220703125	-187.4570617675781	-326.4277648925781	1469.984497070312	-371.7394714355469	-232.4244384765625	1472.915161132812	-457.5255432128906	-269.3519897460938	1348.214477539062	-531.628173828125	-257.849609375	1128.647094726562	-555.0315551757812	-314.8890380859375	1112.875366210938	-466.8397827148438	-112.0366134643555	916.5352783203125	-470.2677001953125	-175.6152954101562	876.98193359375	-517.7796630859375	-217.3499298095703	1019.353820800781	-550.8355712890625	-31.8588695526123	750.4275512695312	-435.5264892578125	-117.4444427490234	802.8095092773438	-506.5979919433594	-61.99972915649414	833.9675903320312	-474.2066650390625	-192.6575775146484	1493.619995117188	-114.1174545288086	-197.3113555908203	1423.72119140625	-39.52304458618164	-231.7678680419922	1161.002685546875	7.85411548614502	-246.496826171875	1124.709716796875	-84.52101898193359	-102.741081237793	901.4141845703125	-17.50585556030273	-159.4943389892578	891.371826171875	54.58329010009766	-215.6815490722656	1086.88671875	28.0286979675293	-80.53507995605469	713.8001708984375	-15.14330577850342	-66.719970703125	792.9493408203125	2.963363885879517	-117.4956283569336	792.4134521484375	57.66616439819336	-235.8474884033203	1682.621704101562	-204.1369018554688	-62.04521560668945	1703.559936523438	-322.8420104980469	-63.36540222167969	1700.178955078125	-224.0443572998047	-242.7853546142578	1691.300903320312	-348.288818359375	-300.9290771484375	928.652587890625	-435.646728515625	-169.0246887207031	938.72900390625	-87.16524505615234	-97.70322418212891	963.5540161132812	-188.4372863769531	-169.0424041748047	969.7866821289062	-411.7061767578125	-264.5523681640625	479.5302734375	-409.0827331542969	-288.1392822265625	622.543701171875	-436.2563171386719	-531.4679565429688	55.96215057373047	-363.6711730957031	-419.4534606933594	274.5178527832031	-399.3240661621094	-312.990234375	37.68733215332031	-299.5766296386719	-371.0326843261719	49.81198501586914	-283.20361328125	-408.7598571777344	35.86673736572266	-383.0328369140625	-598.7557373046875	83.20153045654297	-311.4002685546875	-30.73961067199707	536.248779296875	-132.9080352783203	-108.6244812011719	787.6786499023438	-89.25935363769531	22.3927173614502	39.86513519287109	-145.8996887207031	-11.4737024307251	410.4306335449219	-128.9697723388672	239.1510314941406	111.5659561157227	-189.3783416748047	177.237060546875	95.58308410644531	-219.7008361816406	167.7098541259766	75.1339111328125	-126.0604095458984	-32.96067428588867	28.82278823852539	-187.6523742675781	
371	3.7	-321.0015258789062	1035.946899414062	-155.6439666748047	-367.537841796875	1032.018188476562	-311.3827209472656	-345.3619689941406	1103.2060546875	-245.6508026123047	-111.0593414306641	1284.741455078125	-295.5481872558594	-357.3116455078125	1246.420776367188	-254.4516143798828	-302.9962768554688	1511.36669921875	-276.94482421875	-148.2727355957031	1413.002685546875	-292.9382019042969	-346.605712890625	1376.41455078125	-188.5477294921875	-334.4545288085938	1470.535278320312	-372.7568054199219	-240.6327362060547	1473.503295898438	-458.7110900878906	-278.0217590332031	1349.019165039062	-532.9459228515625	-267.5395812988281	1129.397094726562	-556.576416015625	-324.5413818359375	1113.939086914062	-468.3305358886719	-124.238639831543	915.0198974609375	-472.7677612304688	-188.4566192626953	876.5147094726562	-520.2825317382812	-228.3312530517578	1019.553405761719	-552.7801513671875	-46.39250564575195	747.6632080078125	-438.6423034667969	-131.3321228027344	801.4779663085938	-509.396728515625	-75.40980529785156	831.746826171875	-477.04443359375	-200.5545043945312	1494.00830078125	-115.3911056518555	-205.0303344726562	1423.99755859375	-40.8404541015625	-238.5152282714844	1161.09033203125	6.354200839996338	-253.2779541015625	1124.843872070312	-86.04479217529297	-107.6630783081055	902.4788818359375	-19.8243350982666	-164.1800994873047	891.7691650390625	52.32553863525391	-221.939453125	1086.952514648438	26.36452484130859	-83.78871154785156	715.0989379882812	-18.0248908996582	-70.62705993652344	794.3067016601562	0.2839272022247314	-121.3071441650391	793.1672973632812	55.05530166625977	-243.2147979736328	1683.155151367188	-205.3408508300781	-69.34973907470703	1703.489135742188	-324.0905456542969	-70.68076324462891	1700.09619140625	-225.2913208007812	-250.1753234863281	1691.868041992188	-349.5023193359375	-309.6892395019531	929.3399047851562	-436.7611389160156	-177.6372833251953	938.7489013671875	-88.35109710693359	-106.3801651000977	963.7159423828125	-189.6628265380859	-177.730224609375	970.343994140625	-412.9813232421875	-270.9881591796875	480.1818542480469	-409.5315246582031	-295.3614807128906	622.943359375	-436.931884765625	-532.242919921875	53.62561416625977	-363.1036682128906	-423.2869567871094	273.4143981933594	-399.1706237792969	-313.1761169433594	37.69403839111328	-299.6547241210938	-371.5492858886719	49.35921478271484	-283.2152404785156	-409.2185363769531	35.69367218017578	-383.0052185058594	-599.778076171875	79.70957946777344	-310.58251953125	-39.93401718139648	536.3624877929688	-133.4742279052734	-117.6720123291016	787.57958984375	-90.22026062011719	18.61677932739258	40.53547286987305	-146.2988433837891	-19.88529205322266	410.9700927734375	-129.1457977294922	234.7014007568359	116.1914978027344	-188.1638488769531	173.0821380615234	99.35894012451172	-218.8992919921875	163.2857360839844	78.423583984375	-125.3342132568359	-36.14380264282227	28.51451873779297	-188.2915344238281	
